<svg xmlns="http://www.w3.org/2000/svg" width="14" height="13" viewBox="0 0 14 13" fill="none">
  <mask id="mask0_320_276" style="mask-type:luminance" maskUnits="userSpaceOnUse" x="0" y="1" width="14" height="12">
    <path d="M0 1.83105H13.6473V12.9239H0V1.83105Z" fill="white"/>
  </mask>
  <g mask="url(#mask0_320_276)">
    <path d="M13.4642 6.87261C13.2839 6.61158 12.9768 6.46206 12.6225 6.46206H12.1018V4.96671C12.1018 4.32363 11.6152 3.79923 10.9947 3.73289L10.4017 4.59833H10.8662C11.0671 4.59833 11.2304 4.76402 11.2304 4.96671V6.46206H3.24489C2.62445 6.46206 1.97345 6.92328 1.76169 7.51135L0.87811 9.96682V3.11565C0.87811 2.91663 1.04495 2.74727 1.24317 2.74727H4.66565C4.86734 2.74727 5.0307 2.91313 5.0307 3.11565V4.59833H6.9082L6.30561 3.71922H5.90222V3.11565C5.90222 2.42823 5.34753 1.86816 4.66565 1.86816H1.24317C0.561284 1.86816 0.0065918 2.42773 0.0065918 3.11565V11.66C0.0065918 12.3474 0.561284 12.9075 1.24317 12.9075H10.8662C11.3733 12.9075 11.8099 12.5966 11.9999 12.1536V12.1544L12.0017 12.1509C12.0052 12.1421 12.0078 12.1321 12.0108 12.1228L13.5597 7.81106C13.6805 7.47535 13.6456 7.13381 13.4642 6.87261Z" fill="white"/>
  </g>
  <mask id="mask1_320_276" style="mask-type:luminance" maskUnits="userSpaceOnUse" x="6" y="0" width="5" height="6">
    <path d="M6.75439 0H10.5603V5.41483H6.75439V0Z" fill="white"/>
  </mask>
  <g mask="url(#mask1_320_276)">
    <path d="M6.82341 2.92919L7.35102 3.69929C7.49307 3.90731 7.72533 4.24619 7.86854 4.45321L8.39631 5.22414C8.5382 5.43116 8.77045 5.43116 8.91301 5.22331L9.44144 4.45404C9.5835 4.24619 9.81575 3.90731 9.9583 3.69929L10.4859 2.92919C10.628 2.72217 10.5394 2.55248 10.2903 2.55248H9.60447V0.457556C9.60365 0.206192 9.39964 0 9.15005 0H8.1596C7.90951 0 7.70517 0.206192 7.70517 0.457556V2.55248H7.01932C6.7689 2.55248 6.68135 2.72217 6.82341 2.92919Z" fill="white"/>
  </g>
</svg>