<svg xmlns="http://www.w3.org/2000/svg" width="14" height="14" viewBox="0 0 14 14" fill="none">
  <mask id="mask0_320_134" style="mask-type:luminance" maskUnits="userSpaceOnUse" x="0" y="0" width="14" height="14">
    <path d="M0 0H13.4966V13.6037H0V0Z" fill="white"/>
  </mask>
  <g mask="url(#mask0_320_134)">
    <path d="M12.7216 5.96929C12.2543 5.81511 11.8905 5.46009 11.7237 4.99459C11.5608 4.53994 11.6097 4.04105 11.8579 3.62608C12.1269 3.17666 12.0855 2.62621 11.7552 2.25616L11.7034 2.19882C11.3673 1.83104 10.8248 1.73141 10.385 1.95672C9.94672 2.18082 9.44055 2.18921 8.99692 1.97945C8.55311 1.76934 8.23576 1.37166 8.12628 0.88799C8.01628 0.402567 7.59379 0.0459728 7.09801 0.0204519L7.02075 0.0167811C6.52636 -0.000349414 6.07424 0.313593 5.92129 0.786081C5.76867 1.25787 5.41668 1.62478 4.95572 1.79311C4.50481 1.95742 4.01042 1.90813 3.59936 1.65746C3.15382 1.38635 2.60816 1.42813 2.24196 1.7613L2.18497 1.81356C1.82032 2.15285 1.72159 2.6998 1.94505 3.14397C2.16747 3.5864 2.17561 4.09699 1.96757 4.54483C1.75952 4.9925 1.36526 5.31291 0.885941 5.42356C0.404891 5.53403 0.0513365 5.96054 0.0262187 6.45995L0.0225809 6.53879C0.00317955 7.03749 0.316719 7.49373 0.78495 7.64825C1.25231 7.80242 1.61609 8.15762 1.78273 8.62277C1.94574 9.0776 1.89672 9.57631 1.64848 9.99128C1.37964 10.4409 1.42086 10.9913 1.75121 11.3614L1.80317 11.4187C2.13941 11.7867 2.68178 11.886 3.12143 11.6608C3.55986 11.4364 4.06586 11.4282 4.50966 11.6381C4.95364 11.8482 5.27099 12.2459 5.3803 12.7294C5.49012 13.215 5.9128 13.5717 6.40701 13.5969L6.48566 13.6008C6.50003 13.6011 6.51459 13.6015 6.52896 13.6015C7.0062 13.6015 7.43667 13.29 7.58512 12.8315C7.73791 12.3598 8.08991 11.9928 8.55086 11.8246C9.00142 11.6599 9.49581 11.7098 9.90722 11.9601C10.3524 12.2312 10.8981 12.1896 11.2646 11.8564L11.3218 11.804C11.6861 11.4647 11.7848 10.9177 11.5615 10.4736C11.3391 10.0313 11.331 9.52072 11.539 9.07288C11.7471 8.62504 12.1412 8.3048 12.6206 8.19415C13.1015 8.08333 13.4551 7.65682 13.4804 7.15758L13.4838 7.07892C13.5032 6.58004 13.1899 6.12381 12.7216 5.96929ZM6.75329 3.53605C7.64212 3.53605 8.36534 4.26567 8.36534 5.16258C8.36534 6.05948 7.64212 6.78928 6.75329 6.78928C5.86447 6.78928 5.14125 6.05948 5.14125 5.16258C5.14125 4.26585 5.86447 3.53605 6.75329 3.53605ZM9.44142 9.81211V10.0813H4.06499V9.41217C4.06499 8.3069 4.93753 7.40598 6.02366 7.36769C6.04739 7.36699 6.07078 7.36402 6.09468 7.36402H7.41173C7.4358 7.36402 7.45902 7.36682 7.48275 7.36769C8.56888 7.4058 9.44125 8.3069 9.44125 9.41199V9.81211H9.44142Z" fill="white"/>
  </g>
</svg>