<svg xmlns="http://www.w3.org/2000/svg" width="15" height="12" viewBox="0 0 15 12" fill="none">
  <path d="M0.956912 1.11377L9.45506e-06 3.88122C9.45506e-06 3.88122 -0.00934475 4.4516 0.560397 4.4516C1.03798 4.4516 1.03919 3.88122 1.03919 3.88122L1.85422 1.11377H0.956912Z" fill="white"/>
  <path d="M3.20066 1.11377L2.59766 3.88122C2.59766 3.88122 2.6032 4.4516 3.14869 4.4516C3.69418 4.4516 3.63684 3.88122 3.63684 3.88122L4.09797 1.11377H3.20066Z" fill="white"/>
  <path d="M5.44337 1.11377L5.19531 3.88122C5.19531 3.88122 5.20207 4.4516 5.72816 4.4516C6.25442 4.4516 6.2345 3.88122 6.2345 3.88122L6.34051 1.11377H5.44337Z" fill="white"/>
  <path d="M7.68652 1.11377L7.79254 3.88122C7.79254 3.88122 7.77314 4.4516 8.31585 4.4516C8.85875 4.4516 8.83172 3.88122 8.83172 3.88122L8.58366 1.11377H7.68652Z" fill="white"/>
  <path d="M9.92969 1.11377L10.3906 3.88122C10.3906 3.88122 10.4293 4.4516 10.9384 4.4516C11.4127 4.4516 11.4293 3.88122 11.4293 3.88122L10.8263 1.11377H9.92969Z" fill="white"/>
  <path d="M12.1729 1.11377L12.9891 3.88122C12.9891 3.88122 12.9581 4.4516 13.528 4.4516C14.0977 4.4516 14.0283 3.88122 14.0283 3.88122L13.0702 1.11377H12.1729Z" fill="white"/>
  <path d="M0.939453 1.67057V0.556742C0.939453 0.249966 1.18734 0 1.4917 0H12.5349C12.8392 0 13.0871 0.249966 13.0871 0.556742V1.67057H0.939453Z" fill="white"/>
  <mask id="mask0_6_750" style="mask-type:luminance" maskUnits="userSpaceOnUse" x="0" y="3" width="14" height="9">
    <path d="M0.905273 3.8833H13.1004V11.6941H0.905273V3.8833Z" fill="white"/>
  </mask>
  <g mask="url(#mask0_6_750)">
    <path d="M12.9766 3.89795C12.9773 3.90966 12.9806 3.92137 12.9806 3.93361C12.9806 4.36851 12.6305 4.72214 12.1986 4.72214C11.767 4.72214 11.4169 4.36851 11.4169 3.93361C11.4169 3.92137 11.4202 3.90966 11.4207 3.89795H10.3886C10.3893 3.90966 10.3926 3.92137 10.3926 3.93361C10.3926 4.36851 10.0425 4.72214 9.61065 4.72214C9.17897 4.72214 8.82888 4.36851 8.82888 3.93361C8.82888 3.92137 8.83217 3.90966 8.83269 3.89795H7.79177C7.79246 3.90966 7.79575 3.92137 7.79575 3.93361C7.79575 4.36851 7.44566 4.72214 7.01381 4.72214C6.58213 4.72214 6.23204 4.36851 6.23204 3.93361C6.23204 3.92137 6.23533 3.90966 6.23585 3.89795H5.19441C5.19493 3.90966 5.1984 3.92137 5.1984 3.93361C5.1984 4.36851 4.84831 4.72214 4.41645 4.72214C3.9846 4.72214 3.63451 4.36851 3.63451 3.93361C3.63451 3.92137 3.63797 3.90966 3.63849 3.89795H2.59706C2.59758 3.90966 2.60087 3.92137 2.60087 3.93361C2.60087 4.36851 2.25078 4.72214 1.8191 4.72214C1.38724 4.72214 1.03715 4.36851 1.03715 3.93361C1.03715 3.92137 1.04044 3.90966 1.04096 3.89795H0.939453V11.137C0.939453 11.4438 1.18734 11.6939 1.4917 11.6939H8.66985V6.12544H11.4306V11.6939H12.5349C12.8392 11.6939 13.0871 11.4438 13.0871 11.137V3.89795H12.9766ZM7.01329 10.0233H2.59602V6.12544H7.01329V10.0233Z" fill="white"/>
  </g>
</svg>