<svg xmlns="http://www.w3.org/2000/svg" width="14" height="14" viewBox="0 0 14 14" fill="none">
  <path d="M6.64462 4.27511V0L5.418 2.5077C5.39756 2.54947 5.36863 2.58409 5.33139 2.61153C5.29397 2.63897 5.25239 2.6561 5.20666 2.66275L2.54175 3.05378L6.64462 4.27511Z" fill="white"/>
  <mask id="mask0_320_118" style="mask-type:luminance" maskUnits="userSpaceOnUse" x="0" y="11" width="14" height="3">
    <path d="M0 11.9263H13.8359V13.3647H0V11.9263Z" fill="white"/>
  </mask>
  <g mask="url(#mask0_320_118)">
    <path d="M13.3313 11.9653H0.520489C0.488442 11.9655 0.456742 11.9687 0.425388 11.9749C0.394034 11.9812 0.363719 11.9907 0.334097 12.0031C0.304649 12.0155 0.276586 12.0305 0.249909 12.0485C0.223406 12.0664 0.198808 12.0868 0.176115 12.1097C0.153595 12.1324 0.133328 12.1573 0.115659 12.184C0.0978165 12.2109 0.0827458 12.2392 0.07062 12.269C0.0583209 12.2989 0.0489667 12.3296 0.0427306 12.3613C0.0364944 12.3929 0.0333763 12.4247 0.0332031 12.457V13.365H13.8182V12.457C13.818 12.4247 13.8149 12.3929 13.8087 12.3613C13.8024 12.3296 13.7933 12.2989 13.781 12.269C13.7687 12.2392 13.7538 12.2109 13.7359 12.1842C13.7181 12.1573 13.698 12.1324 13.6753 12.1097C13.6528 12.0868 13.6282 12.0665 13.6017 12.0485C13.575 12.0305 13.5469 12.0155 13.5175 12.0031C13.488 11.9907 13.4576 11.9812 13.4262 11.9749C13.3948 11.9687 13.3631 11.9655 13.3313 11.9653Z" fill="white"/>
  </g>
  <path d="M8.43389 2.5077L7.20728 0V4.27511L11.3101 3.05517L8.64557 2.66432C8.59967 2.65733 8.55792 2.64002 8.5205 2.6124C8.48309 2.58478 8.45416 2.54982 8.43389 2.5077Z" fill="white"/>
  <path d="M7.20679 5.55273V7.67657L9.54777 8.91871L7.20679 5.55273Z" fill="white"/>
  <path d="M12.0513 10.3878C12.0513 10.3623 12.0489 10.3371 12.0439 10.312C12.039 10.287 12.0317 10.2627 12.022 10.2392C12.0123 10.2156 12.0005 10.1933 11.9865 10.1719C11.9725 10.1508 11.9565 10.1312 11.9387 10.113C11.9209 10.095 11.9015 10.0789 11.8805 10.0646C11.8595 10.0505 11.8374 10.0384 11.814 10.0286C11.7906 10.0188 11.7667 10.0113 11.7419 10.0062C11.7171 10.0012 11.692 9.99871 11.6667 9.99854H2.18571C2.16025 9.99854 2.1353 10.001 2.11036 10.0061C2.08542 10.0109 2.06134 10.0183 2.03795 10.0281C2.01457 10.0379 1.99222 10.0499 1.97109 10.0641C1.94995 10.0782 1.93055 10.0943 1.91254 10.1125C1.89469 10.1305 1.87858 10.1503 1.86455 10.1714C1.85035 10.1927 1.83839 10.2151 1.82869 10.2387C1.81899 10.2623 1.81172 10.2868 1.80669 10.3118C1.80167 10.337 1.79925 10.3623 1.79907 10.3878V11.3975H12.0513V10.3878Z" fill="white"/>
  <path d="M6.92557 8.16895L4.54492 9.43188H9.3064L6.92557 8.16895Z" fill="white"/>
  <path d="M6.64459 5.55273L4.30396 8.91871L6.64459 7.67657V5.55273Z" fill="white"/>
  <path d="M11.6107 3.55518L7.37964 4.81497L9.95638 8.519L9.49577 5.80784C9.4878 5.76187 9.4911 5.71659 9.50547 5.67219C9.51985 5.62779 9.54358 5.58934 9.57667 5.55682L11.6107 3.55518Z" fill="white"/>
  <path d="M3.89475 8.519L6.4708 4.81497L2.23975 3.55518L4.27464 5.55682C4.30772 5.58934 4.33145 5.62779 4.34583 5.67219C4.36021 5.71659 4.36333 5.76187 4.35553 5.80784L3.89475 8.519Z" fill="white"/>
</svg>