<svg xmlns="http://www.w3.org/2000/svg" width="15" height="12" viewBox="0 0 15 12" fill="none">
  <mask id="mask0_320_72" style="mask-type:luminance" maskUnits="userSpaceOnUse" x="0" y="0" width="15" height="12">
    <path d="M0 0H14.3554V11.3719H0V0Z" fill="white"/>
  </mask>
  <g mask="url(#mask0_320_72)">
    <path d="M14.3543 2.06755V2.25371C14.2582 2.14341 14.1518 2.04465 14.0349 1.95725C13.918 1.86985 13.7932 1.79573 13.6607 1.73525C13.5282 1.6746 13.3908 1.6288 13.2486 1.59768C13.1064 1.56657 12.9626 1.55084 12.8171 1.55066H7.81588L7.35475 0.625441C7.33622 0.588208 7.31578 0.552024 7.29326 0.516889H12.8171C12.8673 0.516889 12.9176 0.519336 12.9678 0.524405C13.0179 0.5293 13.0676 0.536816 13.117 0.54678C13.1663 0.556569 13.2152 0.56898 13.2633 0.583663C13.3115 0.598521 13.3588 0.615477 13.4054 0.63488C13.4518 0.654458 13.4974 0.676133 13.5417 0.700081C13.5861 0.724028 13.6292 0.750074 13.6711 0.778217C13.713 0.806534 13.7534 0.836775 13.7922 0.868939C13.8312 0.901102 13.8684 0.935188 13.9041 0.971197C13.9396 1.00703 13.9734 1.04461 14.0054 1.08394C14.0373 1.1231 14.0673 1.16383 14.0952 1.20613C14.1232 1.24826 14.149 1.29178 14.1728 1.33671C14.1965 1.38146 14.218 1.42725 14.2372 1.47427C14.2566 1.52112 14.2734 1.56884 14.2881 1.61744C14.3027 1.66603 14.315 1.71533 14.3247 1.76514C14.3346 1.81496 14.342 1.86513 14.3469 1.91565C14.3519 1.96617 14.3543 2.01686 14.3543 2.06755ZM14.3543 3.61839V9.82121C14.3543 9.8719 14.3519 9.92259 14.3469 9.97311C14.342 10.0236 14.3346 10.0738 14.3247 10.1236C14.315 10.1734 14.3027 10.2227 14.2881 10.2713C14.2734 10.3199 14.2566 10.3676 14.2372 10.4147C14.218 10.4615 14.1965 10.5073 14.1728 10.5522C14.149 10.597 14.1232 10.6405 14.0952 10.6826C14.0673 10.7249 14.0373 10.7657 14.0054 10.805C13.9734 10.8441 13.9396 10.8817 13.9041 10.9177C13.8684 10.9536 13.8312 10.9877 13.7922 11.0198C13.7534 11.0522 13.713 11.0822 13.6711 11.1105C13.6292 11.1387 13.5861 11.1649 13.5417 11.1887C13.4974 11.2126 13.4518 11.2345 13.4054 11.2539C13.3588 11.2733 13.3115 11.2904 13.2633 11.3051C13.2152 11.3198 13.1663 11.3322 13.117 11.3421C13.0676 11.3519 13.0179 11.3595 12.9678 11.3643C12.9176 11.3694 12.8673 11.3719 12.8171 11.3719H1.54405C1.49364 11.3719 1.4434 11.3694 1.39334 11.3643C1.34328 11.3595 1.29356 11.3519 1.24419 11.3421C1.19482 11.3322 1.14597 11.3198 1.09782 11.3051C1.04966 11.2904 1.00219 11.2733 0.95577 11.2539C0.909172 11.2345 0.863787 11.2126 0.819441 11.1887C0.774922 11.1649 0.731788 11.1387 0.690041 11.1105C0.64812 11.0822 0.607758 11.0522 0.568782 11.0198C0.52998 10.9877 0.492563 10.9536 0.457051 10.9177C0.421367 10.8817 0.387588 10.8441 0.355714 10.805C0.32384 10.7657 0.293872 10.7249 0.265809 10.6826C0.23792 10.6405 0.212109 10.597 0.188377 10.5522C0.164645 10.5073 0.142992 10.4615 0.123764 10.4147C0.104536 10.3676 0.0875594 10.3199 0.0730084 10.2713C0.0582841 10.2227 0.0461584 10.1734 0.0362844 10.1236C0.0265837 10.0738 0.019135 10.0236 0.0141114 9.97311C0.00926115 9.92259 0.00683594 9.8719 0.00683594 9.82121V1.55066C0.00683594 1.49997 0.00926115 1.44928 0.0141114 1.39876C0.019135 1.34824 0.0265837 1.29808 0.0362844 1.24826C0.0461584 1.19844 0.0582841 1.14914 0.0730084 1.10055C0.0875594 1.05196 0.104536 1.00423 0.123764 0.957213C0.142992 0.910366 0.164645 0.864569 0.188377 0.819645C0.212109 0.774895 0.23792 0.73137 0.265809 0.689243C0.293872 0.646941 0.32384 0.606212 0.355714 0.567057C0.387588 0.527727 0.421367 0.490144 0.457051 0.454135C0.492563 0.418301 0.52998 0.384215 0.568782 0.352052C0.607758 0.319713 0.64812 0.289647 0.690041 0.26133C0.731788 0.233187 0.774922 0.207141 0.819441 0.183194C0.863787 0.159246 0.909172 0.137571 0.95577 0.117993C1.00219 0.0985898 1.04966 0.0814594 1.09782 0.066776C1.14597 0.0520928 1.19482 0.0396818 1.24419 0.029893C1.29356 0.0199293 1.34328 0.0124129 1.39334 0.00751844C1.4434 0.00244917 1.49364 1.98621e-06 1.54405 1.98621e-06H5.52029C5.62872 -0.000172804 5.73578 0.0111892 5.84179 0.0339134C5.94763 0.0566375 6.05001 0.0901994 6.14892 0.134774C6.24784 0.179348 6.34103 0.233711 6.42851 0.298213C6.51599 0.36254 6.59585 0.435432 6.66808 0.516889C6.76145 0.619323 6.83836 0.732943 6.89865 0.858101L7.35475 1.78332C7.37623 1.82632 7.40308 1.86565 7.43548 1.90096C7.46787 1.93645 7.50442 1.96669 7.54513 1.99186C7.58584 2.01686 7.62932 2.03591 7.67522 2.04885C7.7213 2.06161 7.76824 2.0679 7.81588 2.06755H12.8171C12.8673 2.06755 12.9176 2.07017 12.9678 2.07507C13.0179 2.08014 13.0676 2.08748 13.117 2.09744C13.1663 2.1074 13.2152 2.11964 13.2633 2.13432C13.3115 2.14918 13.3588 2.16631 13.4054 2.18572C13.4518 2.20512 13.4974 2.22679 13.5417 2.25074C13.5861 2.27469 13.6292 2.30073 13.6711 2.32905C13.713 2.3572 13.7534 2.38744 13.7922 2.4196C13.8312 2.45176 13.8684 2.48585 13.9041 2.52186C13.9396 2.55769 13.9734 2.59527 14.0054 2.63461C14.0373 2.67376 14.0673 2.71466 14.0952 2.75679C14.1232 2.79909 14.149 2.84262 14.1728 2.88737C14.1965 2.93212 14.218 2.97791 14.2372 3.02494C14.2566 3.07178 14.2734 3.1195 14.2881 3.16827C14.3027 3.21687 14.315 3.26599 14.3247 3.31581C14.3346 3.36562 14.342 3.41579 14.3469 3.46631C14.3519 3.51683 14.3543 3.56752 14.3543 3.61839ZM9.2301 6.71971C9.2301 6.6858 9.22681 6.65224 9.2204 6.61885C9.21382 6.58564 9.20412 6.5533 9.19112 6.52201C9.17831 6.49054 9.16254 6.46083 9.14383 6.43251C9.12513 6.40437 9.10382 6.37832 9.08009 6.3542C9.05636 6.33025 9.03037 6.30875 9.00248 6.29005C8.97442 6.27117 8.94497 6.25526 8.91379 6.24215C8.88278 6.22922 8.85074 6.21943 8.81765 6.21278C8.78474 6.20614 8.75148 6.20282 8.7177 6.20282H5.64328C5.60967 6.20282 5.57641 6.20614 5.54332 6.21278C5.51041 6.21943 5.47836 6.22922 5.44718 6.24215C5.41618 6.25526 5.38655 6.27117 5.35866 6.29005C5.3306 6.30875 5.30479 6.33025 5.28106 6.3542C5.25715 6.37832 5.23602 6.40437 5.21731 6.43251C5.1986 6.46083 5.18284 6.49054 5.16985 6.52201C5.15703 6.5533 5.14733 6.58564 5.14075 6.61885C5.13416 6.65224 5.13087 6.6858 5.13087 6.71971C5.13087 6.75362 5.13416 6.78736 5.14075 6.82057C5.14733 6.85396 5.15703 6.88612 5.16985 6.91758C5.18284 6.94887 5.1986 6.97876 5.21731 7.00691C5.23602 7.03522 5.25715 7.06127 5.28106 7.08522C5.30479 7.10917 5.3306 7.13067 5.35866 7.14954C5.38655 7.16842 5.41618 7.18433 5.44718 7.19726C5.47836 7.21037 5.51041 7.22016 5.54332 7.22663C5.57641 7.23327 5.60967 7.2366 5.64328 7.2366H8.7177C8.75148 7.2366 8.78474 7.23327 8.81765 7.22663C8.85074 7.22016 8.88278 7.21037 8.91379 7.19726C8.94497 7.18433 8.97442 7.16842 9.00248 7.14954C9.03037 7.13067 9.05636 7.10917 9.08009 7.08522C9.10382 7.06127 9.12513 7.03522 9.14383 7.00691C9.16254 6.97876 9.17831 6.94887 9.19112 6.91758C9.20412 6.88612 9.21382 6.85396 9.2204 6.82057C9.22681 6.78736 9.2301 6.75362 9.2301 6.71971Z" fill="white"/>
  </g>
</svg>