<svg xmlns="http://www.w3.org/2000/svg" width="21" height="21" viewBox="0 0 21 21" fill="none">
  <path d="M12.5976 0.340878C12.4393 0.298466 12.2802 0.260079 12.1201 0.225423C11.9599 0.190999 11.7992 0.160431 11.6378 0.133654C11.476 0.107048 11.3139 0.0843593 11.1513 0.0655253C10.9884 0.046862 10.8255 0.0321782 10.662 0.0213492C10.4986 0.0108158 10.3351 0.00396635 10.1714 0.00132978C10.0075 -0.00136933 9.84393 3.61287e-05 9.6801 0.00535882C9.51651 0.0107439 9.35308 0.0201712 9.18988 0.0334074C9.02661 0.0468767 8.86381 0.0642174 8.70141 0.0856628C8.53901 0.107108 8.37737 0.132254 8.21606 0.161738C8.05505 0.191051 7.89473 0.224298 7.73511 0.261479C7.57572 0.298723 7.41732 0.339729 7.25985 0.384733C7.10238 0.429736 6.9459 0.478502 6.79088 0.531156C6.63586 0.583811 6.48212 0.640058 6.32984 0.700194C6.17749 0.760562 6.02673 0.824352 5.87766 0.892093C5.72842 0.959539 5.58093 1.0307 5.43542 1.10565C5.28969 1.18053 5.14582 1.25866 5.00418 1.34063C4.86231 1.42254 4.72248 1.508 4.58482 1.59654C4.44734 1.68538 4.31173 1.77746 4.17876 1.87276C4.0455 1.96822 3.91487 2.06689 3.78666 2.1687C3.65844 2.27051 3.53262 2.37546 3.40951 2.48339C3.2864 2.59132 3.16599 2.70222 3.04828 2.81609C2.93057 2.92996 2.8158 3.04687 2.70385 3.16628C2.59184 3.28593 2.48295 3.40791 2.377 3.53292C2.2711 3.65771 2.16821 3.78529 2.06844 3.91521C1.96866 4.04514 1.87231 4.17722 1.77924 4.31194C1.68595 4.44659 1.59607 4.58341 1.50955 4.72263C1.42309 4.86161 1.34004 5.00276 1.26048 5.14585C1.18109 5.28922 1.105 5.43424 1.03269 5.58101C0.96009 5.72796 0.891325 5.87643 0.826335 6.02666C0.761049 6.17707 0.699664 6.32877 0.641883 6.48193C0.584273 6.63539 0.530393 6.78985 0.480351 6.94584C0.430076 7.10177 0.383997 7.25882 0.341585 7.4171C0.299236 7.57515 0.260616 7.7342 0.226193 7.89438C0.191536 8.05449 0.160905 8.21543 0.134128 8.3769C0.107585 8.53844 0.0848962 8.7005 0.0662328 8.8634C0.0473988 9.026 0.032715 9.18897 0.0221191 9.35253C0.01129 9.51603 0.00473627 9.67942 0.00180408 9.84328C-0.000832576 10.007 0.000510465 10.1707 0.00589556 10.3343C0.0112182 10.4982 0.0206454 10.6616 0.0341147 10.8249C0.0473509 10.9881 0.0646917 11.1509 0.086137 11.3133C0.107582 11.4757 0.132962 11.6374 0.162275 11.7984C0.191525 11.9596 0.224772 12.1199 0.262016 12.2793C0.299197 12.4389 0.340204 12.5973 0.385207 12.7548C0.43021 12.9123 0.479039 13.0685 0.531693 13.2236C0.584285 13.3788 0.640828 13.5324 0.700963 13.6847C0.761099 13.8369 0.824889 13.9877 0.892568 14.137C0.960076 14.286 1.03147 14.4336 1.10612 14.5792C1.181 14.725 1.25943 14.8687 1.34134 15.0105C1.42302 15.1524 1.50854 15.292 1.59731 15.4297C1.68585 15.5673 1.778 15.7027 1.87346 15.836C1.96875 15.9689 2.06742 16.0996 2.16917 16.228C2.27098 16.3562 2.37594 16.482 2.48386 16.6052C2.59179 16.7283 2.70299 16.8485 2.81686 16.9662C2.93073 17.0839 3.04734 17.1989 3.16675 17.3108C3.28646 17.4226 3.40868 17.5315 3.5334 17.6377C3.65841 17.7436 3.78577 17.8465 3.91575 17.946C4.04567 18.0458 4.17799 18.1422 4.31265 18.2355C4.44736 18.3285 4.58418 18.4184 4.72317 18.5049C4.86238 18.5914 5.0033 18.6744 5.14661 18.754C5.2897 18.8336 5.43471 18.9097 5.58148 18.982C5.72849 19.0543 5.87696 19.1231 6.02737 19.1884C6.1776 19.2534 6.3293 19.3148 6.4827 19.3726C6.63587 19.4304 6.79039 19.484 6.94632 19.5343C7.10231 19.5844 7.25929 19.6307 7.41758 19.6731C7.57563 19.7154 7.73497 19.7539 7.89485 19.7885C8.05502 19.8229 8.2159 19.8538 8.37744 19.8803C8.5392 19.9069 8.70127 19.9296 8.86388 19.9484C9.02654 19.967 9.18974 19.9818 9.353 19.9925C9.5165 20.0034 9.68013 20.01 9.84382 20.0126C10.0075 20.0153 10.1713 20.0139 10.3351 20.0086C10.4987 20.0032 10.6621 19.9938 10.8253 19.9806C10.9886 19.9671 11.1514 19.9497 11.3138 19.9283C11.4761 19.9071 11.6378 19.8817 11.7988 19.8524C11.9602 19.8229 12.1205 19.7897 12.2798 19.7527C12.4394 19.7155 12.5979 19.6742 12.7553 19.6292C12.9128 19.5842 13.069 19.5356 13.2243 19.483C13.3793 19.4304 13.5331 19.3739 13.6854 19.3138C13.8377 19.2534 13.9882 19.1895 14.1375 19.1221C14.2868 19.0544 14.434 18.9832 14.5798 18.9083C14.7255 18.8334 14.8691 18.7552 15.011 18.6733C15.1529 18.5914 15.2927 18.5062 15.4301 18.4174C15.5679 18.3286 15.7032 18.2364 15.8364 18.1412C15.9695 18.0457 16.1003 17.9471 16.2285 17.8453C16.3568 17.7435 16.4825 17.6387 16.6057 17.5306C16.7288 17.4226 16.8492 17.3117 16.9669 17.1979C17.0846 17.084 17.1993 16.9673 17.3114 16.8477C17.4233 16.7283 17.5323 16.6061 17.6382 16.481C17.7441 16.3563 17.8469 16.2289 17.9467 16.099C18.0462 15.969 18.1427 15.8367 18.236 15.702C18.3293 15.5674 18.4191 15.4305 18.5054 15.2913C18.5919 15.1523 18.6749 15.0111 18.7545 14.8681C18.8341 14.7247 18.9101 14.58 18.9825 14.4329C19.0551 14.286 19.1239 14.1375 19.1889 13.9873C19.2542 13.8369 19.3155 13.6852 19.3731 13.532C19.4309 13.3788 19.4848 13.2241 19.5349 13.0681C19.5849 12.9121 19.6312 12.7551 19.6736 12.5971C19.7157 12.4387 19.7541 12.2796 19.7885 12.1197C19.8229 11.9595 19.8532 11.7987 19.8798 11.6372C19.9063 11.4757 19.9288 11.3135 19.9474 11.1509C19.966 10.9882 19.9804 10.8252 19.991 10.6616C20.0016 10.4983 20.0081 10.3349 20.0108 10.1712C20.0134 10.0075 20.0118 9.8437 20.0064 9.6801C20.0008 9.51645 19.9914 9.35302 19.9779 9.18999C19.9644 9.02673 19.947 8.86416 19.9255 8.70176C19.9041 8.53936 19.8787 8.37765 19.8492 8.21658C19.8199 8.05556 19.7865 7.89548 19.7494 7.73586C19.7121 7.57647 19.6709 7.41801 19.6258 7.26077C19.5808 7.1033 19.532 6.94706 19.4793 6.79203C19.4267 6.63701 19.3704 6.4835 19.31 6.33116C19.2499 6.17888 19.1861 6.02812 19.1183 5.87905C19.0508 5.73004 18.9797 5.58255 18.9047 5.43704C18.8301 5.29137 18.7516 5.14768 18.6697 5.0058C18.588 4.86399 18.5025 4.72439 18.414 4.58674C18.3252 4.44925 18.2332 4.31394 18.1378 4.18068C18.0425 4.04771 17.9439 3.91685 17.8423 3.7887C17.7405 3.66048 17.6355 3.53466 17.5276 3.41155C17.4199 3.2885 17.309 3.16809 17.1951 3.05038C17.0813 2.93267 16.9646 2.81796 16.8452 2.70601C16.7258 2.59407 16.6036 2.48488 16.4788 2.37899C16.354 2.2731 16.2268 2.17003 16.0971 2.07032C15.9671 1.97078 15.8348 1.87413 15.7004 1.7809C15.5658 1.6876 15.4289 1.59772 15.2899 1.51126C15.151 1.42457 15.0101 1.34159 14.8671 1.26179C14.724 1.18223 14.579 1.10614 14.4323 1.0336C14.2856 0.961061 14.1371 0.892295 13.987 0.826838C13.8368 0.761615 13.6851 0.70023 13.532 0.642216C13.3789 0.584436 13.2242 0.530493 13.0685 0.480281C12.9125 0.430006 12.7556 0.38346 12.5976 0.340878ZM12.1793 11.3833L10.1135 12.5759C10.0742 12.5986 10.0409 12.6279 10.0132 12.664C9.9858 12.7001 9.9661 12.7401 9.95459 12.784L8.9998 16.3473L7.71022 16.0018L8.66333 12.4447C8.67632 12.4 8.68001 12.3545 8.67458 12.3086C8.66897 12.2623 8.6546 12.219 8.63139 12.1788L7.43872 10.113C7.41602 10.0737 7.3865 10.0403 7.35043 10.0127C7.31454 9.98533 7.27459 9.96563 7.23077 9.95389L3.66113 8.9974L4.0066 7.70806L7.56995 8.66286C7.61446 8.67578 7.65994 8.67947 7.70617 8.67387C7.75239 8.66827 7.79542 8.65406 7.83592 8.63069L9.90162 7.43825C9.94076 7.41525 9.97433 7.38602 10.0017 7.3499C10.0294 7.31383 10.0491 7.27389 10.0606 7.23L11.0171 3.66036L12.3067 4.0059L11.3519 7.56925C11.3389 7.61399 11.335 7.65941 11.3406 7.70563C11.3462 7.75162 11.3606 7.79495 11.3837 7.83538L12.5765 9.90092C12.5992 9.94023 12.6287 9.97362 12.6645 10.0012C12.7006 10.0289 12.7406 10.0483 12.7844 10.0601L16.3478 11.0149L16.0023 12.3042L12.4452 11.3511C12.4007 11.3382 12.3553 11.3345 12.309 11.3401C12.2628 11.3457 12.2195 11.3601 12.1793 11.3833Z" fill="currentColor"/>
</svg>