<svg xmlns="http://www.w3.org/2000/svg" width="37" height="46" viewBox="0 0 37 46" fill="none">
  <mask id="mask0_1_581" style="mask-type:luminance" maskUnits="userSpaceOnUse" x="0" y="0" width="37" height="46">
    <path d="M0 0H36.1192V46H0V0Z" fill="white"/>
  </mask>
  <g mask="url(#mask0_1_581)">
    <path d="M26.8377 18.0899L24.935 25.6442C24.9025 25.7706 24.8598 25.8939 24.8068 26.0132C24.7538 26.1325 24.6915 26.2464 24.6194 26.3555C24.5473 26.4645 24.4668 26.5664 24.3778 26.6621C24.2887 26.7578 24.1926 26.845 24.0889 26.9247C23.9852 27.0044 23.8761 27.0747 23.7604 27.1361C23.6451 27.1975 23.5259 27.2487 23.4017 27.2906C23.278 27.332 23.1516 27.3627 23.0225 27.3831C22.8934 27.4036 22.7634 27.4134 22.633 27.4125H17.5689C16.8305 27.4063 16.1015 27.3204 15.3818 27.1544C14.6621 26.9888 13.9691 26.7471 13.3028 26.4293L13.3032 16.8183C14.6412 16.1867 18.2944 14.1518 18.8899 10.5471L18.8605 10.5422C18.9794 10.1558 19.1187 9.53718 19.3412 8.54554C19.3528 8.48902 19.3795 8.44095 19.4209 8.40133C19.4627 8.36172 19.5117 8.33724 19.5687 8.3279C22.6544 8.9746 20.7187 13.4939 19.6991 15.3793C19.6853 15.4082 19.6728 15.4381 19.6626 15.4683C19.6523 15.499 19.6439 15.5297 19.6376 15.5613C19.631 15.593 19.6265 15.625 19.6243 15.657C19.6216 15.6891 19.6212 15.7211 19.623 15.7532C19.6247 15.7852 19.6283 15.8173 19.6341 15.8489C19.6394 15.8805 19.647 15.9116 19.6568 15.9423C19.6661 15.973 19.6777 16.0033 19.691 16.0322C19.7044 16.0616 19.7195 16.0901 19.7364 16.1173C19.7534 16.1449 19.7721 16.1711 19.7925 16.196C19.8126 16.221 19.8344 16.2445 19.8575 16.2668C19.8807 16.2895 19.9051 16.31 19.9309 16.3291C19.9568 16.3487 19.9839 16.3661 20.012 16.3816C20.04 16.3977 20.0689 16.4115 20.0987 16.4239C20.1286 16.4359 20.1588 16.4462 20.19 16.4546C20.2211 16.4631 20.2527 16.4693 20.2843 16.4738C20.3164 16.4782 20.3484 16.4804 20.3805 16.4809H25.5488C26.3753 16.4573 27.0571 17.29 26.8377 18.0899ZM10.015 36.1468C9.20094 35.5757 8.06331 33.1643 7.51764 32.3356C7.36053 32.0529 7.15757 31.8081 6.90877 31.6016C6.65997 31.3947 6.38224 31.2402 6.07514 31.1378L0.2152 41.8323L5.48229 40.1249C5.53169 40.1089 5.58199 40.0982 5.63362 40.0924C5.68524 40.0871 5.73687 40.0866 5.7885 40.0915C5.84013 40.096 5.89087 40.1062 5.94072 40.1214C5.99013 40.1365 6.03775 40.1565 6.08315 40.1814C6.12899 40.2064 6.17127 40.2357 6.21089 40.2696C6.2505 40.303 6.2861 40.3403 6.31815 40.3813C6.3502 40.4222 6.37735 40.4659 6.40049 40.5121C6.42319 40.5589 6.44144 40.6069 6.45434 40.6572L7.84656 46L12.6806 37.1571C12.4376 37.1549 12.1963 37.1313 11.9573 37.0859C11.7183 37.041 11.4851 36.9755 11.2577 36.8892C11.0302 36.8033 10.8121 36.6978 10.6034 36.5727C10.3946 36.4481 10.1988 36.3061 10.015 36.1468ZM9.2766 26.1578H11.7788V17.1214H9.2766V26.1578ZM28.6394 32.3289C28.3581 32.774 26.9792 35.2882 26.6535 35.6256C26.459 35.8597 26.2413 36.0702 26.0014 36.2576C25.7611 36.445 25.5038 36.6043 25.2296 36.7365C24.955 36.8687 24.6697 36.9702 24.3733 37.041C24.0769 37.1117 23.7764 37.15 23.472 37.1562L28.3065 46L29.6987 40.6572C29.7116 40.6069 29.7299 40.5589 29.753 40.5121C29.7757 40.4659 29.8033 40.4222 29.8353 40.3813C29.8669 40.3403 29.903 40.303 29.9422 40.2696C29.9818 40.2357 30.0245 40.2068 30.0699 40.1819C30.1153 40.157 30.1629 40.1369 30.2128 40.1214C30.2622 40.1062 30.3129 40.0964 30.3645 40.0915C30.4162 40.0866 30.4678 40.0871 30.5194 40.0924C30.5711 40.0982 30.6218 40.1089 30.6712 40.1249L35.9378 41.8323L30.0779 31.1378C29.7721 31.2393 29.4948 31.3924 29.2465 31.5981C28.9981 31.8037 28.7956 32.0471 28.6394 32.3289ZM34.1735 19.6979C33.0252 21.5824 33.9697 23.6961 34.2118 25.6576C34.2385 25.8116 34.2519 25.9665 34.2514 26.1227C34.2514 26.2789 34.2376 26.4338 34.2105 26.5873C34.1833 26.7413 34.1428 26.8913 34.0894 27.0382C34.036 27.1851 33.9701 27.3262 33.8922 27.4615C33.8139 27.5968 33.7249 27.7241 33.6243 27.8438C33.5242 27.9635 33.4142 28.0739 33.2949 28.1745C33.1752 28.2751 33.0479 28.3645 32.9126 28.4429C32.7778 28.5212 32.6367 28.5875 32.4898 28.6414C32.107 28.7892 30.2777 29.4546 29.5113 29.722C27.6438 30.2343 26.6637 32.8354 25.725 34.3042C25.7192 34.318 25.7117 34.3309 25.7023 34.3424C25.5884 34.5427 25.4459 34.7203 25.2755 34.8752C25.2149 34.9286 25.1691 34.9816 25.1081 35.035C25.0877 35.0519 24.7743 35.2673 24.712 35.3016C24.6728 35.3225 24.6319 35.3399 24.5901 35.3545C24.4886 35.4066 24.3844 35.4525 24.2776 35.4916C24.0582 35.5357 23.683 35.7097 22.8912 35.5829C22.5262 35.5045 22.3593 35.4307 19.5317 34.4034C18.5107 33.9997 17.2996 34.0758 16.073 34.5935C13.4541 35.5522 13.4808 35.5709 13.0104 35.6136C12.8279 35.6358 12.645 35.6358 12.462 35.6136C12.2934 35.5984 12.1282 35.5655 11.9667 35.5143C11.8145 35.4752 11.6698 35.4169 11.5327 35.3394C11.5042 35.3283 11.4762 35.3154 11.449 35.3011C11.3489 35.2433 11.2523 35.1796 11.1593 35.1111C11.0373 35.0399 10.9332 34.9486 10.8468 34.8369C10.8014 34.7915 10.748 34.7457 10.7022 34.6998C10.5976 34.577 10.5064 34.4452 10.428 34.3042L8.83597 31.5794C8.2498 30.4791 7.15668 29.8209 5.97143 29.4862C5.93538 29.4862 4.06649 28.7838 3.65568 28.6414C3.50924 28.5871 3.3686 28.5203 3.23418 28.4415C3.09932 28.3628 2.97248 28.2733 2.85364 28.1723C2.73436 28.0717 2.62487 27.9613 2.52517 27.8416C2.42547 27.7218 2.33646 27.5941 2.25901 27.4588C2.18112 27.3239 2.1157 27.1829 2.06273 27.0364C2.00932 26.8895 1.96926 26.7396 1.94211 26.586C1.91541 26.4325 1.90161 26.278 1.90161 26.1218C1.90117 25.966 1.91452 25.8111 1.94167 25.6576L2.49001 22.5522C2.53318 22.3101 2.55499 22.0662 2.55544 21.8201C2.55588 21.5744 2.53452 21.33 2.49134 21.0879C2.44862 20.8458 2.38497 20.609 2.29996 20.3785C2.21539 20.1475 2.11124 19.9258 1.98707 19.7131L0.417712 16.9656C0.338933 16.8307 0.272616 16.6901 0.218316 16.5436C0.164016 16.3977 0.123068 16.2477 0.0954733 16.0941C0.0678783 15.9406 0.0536357 15.7857 0.0527455 15.6294C0.0523004 15.4737 0.0652078 15.3188 0.0919126 15.1648C0.118617 15.0112 0.15823 14.8608 0.211639 14.7139C0.264604 14.5675 0.330031 14.4264 0.40792 14.2911C0.485364 14.1558 0.57438 14.028 0.674969 13.9083C0.775112 13.7886 0.885047 13.6787 1.00433 13.5785L3.4042 11.569C5.12088 10.2279 4.97846 7.85433 5.41553 5.94404C5.44312 5.79093 5.48362 5.64094 5.53748 5.49496C5.59133 5.34852 5.6572 5.20788 5.73554 5.07346C5.81343 4.9386 5.90289 4.81176 6.00348 4.69247C6.10362 4.57319 6.21356 4.4637 6.33328 4.36356C6.45256 4.26342 6.57986 4.1744 6.71472 4.09651C6.85002 4.01862 6.99067 3.95275 7.1371 3.89934C7.28353 3.84593 7.43352 3.80587 7.58708 3.77828C7.74063 3.75113 7.89507 3.73733 8.05129 3.73689H11.2278C11.4722 3.73644 11.7148 3.71508 11.9555 3.6719C12.1963 3.62918 12.4313 3.56553 12.6606 3.48096C12.8898 3.3964 13.1101 3.2927 13.3211 3.16941C13.5325 3.04612 13.731 2.90548 13.917 2.74747L16.3627 0.722798C16.4834 0.62132 16.612 0.531414 16.7486 0.453079C16.8853 0.374745 17.0277 0.308873 17.1759 0.255463C17.3246 0.202054 17.4763 0.162442 17.6317 0.136182C17.787 0.109922 17.9437 0.0970145 18.1012 0.098795C18.2588 0.10013 18.415 0.115263 18.5699 0.144193C18.7248 0.173569 18.8761 0.215851 19.0234 0.271486C19.1708 0.327567 19.3123 0.395664 19.4476 0.476669C19.5829 0.557673 19.7097 0.649805 19.8286 0.753064C21.1976 1.73447 22.7817 3.81878 24.9252 3.73689H28.1022C28.2575 3.73689 28.412 3.75068 28.5655 3.77783C28.7186 3.80498 28.8682 3.84549 29.0146 3.89845C29.161 3.95186 29.3012 4.01729 29.4365 4.09473C29.5714 4.17218 29.6982 4.26075 29.818 4.36044C29.9373 4.46014 30.0472 4.56963 30.1478 4.68847C30.2484 4.80731 30.3374 4.93371 30.4162 5.06812C30.4945 5.20254 30.5608 5.34229 30.6147 5.48828C30.669 5.63427 30.7099 5.78337 30.738 5.93648L31.2863 9.05738C31.3277 9.29906 31.3896 9.5354 31.4732 9.7664C31.5565 9.99695 31.6593 10.2186 31.7821 10.4309C31.9054 10.6432 32.0461 10.8435 32.2045 11.0304C32.3629 11.2178 32.537 11.3896 32.7261 11.5463L35.1487 13.5785C35.2684 13.6791 35.3784 13.7895 35.479 13.9097C35.5791 14.0294 35.6686 14.1576 35.746 14.2933C35.8239 14.4291 35.8893 14.5702 35.9423 14.7175C35.9948 14.8648 36.0344 15.0157 36.0611 15.1697C36.0874 15.3237 36.0998 15.479 36.099 15.6357C36.0976 15.7919 36.0829 15.9472 36.0545 16.1008C36.026 16.2548 35.9846 16.4048 35.9294 16.5512C35.8746 16.6976 35.8074 16.8383 35.7278 16.9731L34.1735 19.6979ZM25.5501 14.956H21.6267C22.8396 12.1747 23.9821 7.62556 19.7298 6.81195C19.6234 6.80394 19.517 6.80616 19.4111 6.81729C19.3052 6.82886 19.201 6.84934 19.0986 6.87916C18.9967 6.90942 18.8979 6.94814 18.8022 6.99577C18.707 7.04339 18.6166 7.09903 18.5312 7.16312C18.4462 7.22677 18.3669 7.29753 18.2944 7.37542C18.2218 7.45331 18.1564 7.53699 18.099 7.62689C18.0411 7.71635 17.9917 7.81027 17.9512 7.90863C17.9103 8.00699 17.8782 8.10803 17.8555 8.21218C17.5796 9.4357 17.4002 10.264 17.3833 10.2978C16.9111 13.1673 13.5894 15.0856 12.3018 15.5952H8.51596C8.46566 15.5956 8.41626 15.6005 8.3673 15.6103C8.31834 15.6201 8.27072 15.6348 8.22488 15.6539C8.17859 15.6731 8.13453 15.6967 8.09313 15.7242C8.05174 15.7523 8.01302 15.7839 7.97786 15.8191C7.9427 15.8542 7.91109 15.8925 7.88305 15.9343C7.85546 15.9757 7.83187 16.0193 7.81273 16.0656C7.79359 16.1119 7.77891 16.1591 7.76911 16.2081C7.75932 16.257 7.75398 16.3064 7.75398 16.3567V26.9212C7.75398 26.971 7.75932 27.0204 7.76911 27.0694C7.77891 27.1183 7.79359 27.1659 7.81273 27.2122C7.83187 27.2581 7.85546 27.3021 7.88305 27.3435C7.91109 27.3849 7.9427 27.4236 7.97786 27.4588C8.01302 27.494 8.05174 27.5256 8.09313 27.5536C8.13453 27.5812 8.17859 27.6048 8.22488 27.6239C8.27072 27.6431 8.31834 27.6573 8.3673 27.6675C8.41626 27.6773 8.46566 27.6822 8.51596 27.6822H12.3859C12.5769 27.7463 14.6652 28.9383 17.5662 28.9383H22.6321C22.7394 28.9391 22.8467 28.9351 22.9539 28.9271C23.0608 28.9187 23.1676 28.9062 23.2735 28.8889C23.3794 28.8719 23.4845 28.8506 23.5886 28.8248C23.6928 28.7989 23.7956 28.7687 23.8975 28.7344C23.999 28.7001 24.0991 28.6614 24.1979 28.6187C24.2963 28.576 24.3929 28.5292 24.4872 28.4785C24.582 28.4277 24.6742 28.3734 24.7645 28.3151C24.8544 28.2564 24.9417 28.1945 25.0267 28.1291C25.1117 28.0632 25.1936 27.9942 25.2728 27.9217C25.352 27.8491 25.4281 27.7735 25.5007 27.6947C25.5737 27.6159 25.6431 27.5345 25.709 27.4499C25.7753 27.3653 25.8376 27.2781 25.8964 27.1882C25.9551 27.0983 26.0099 27.0066 26.061 26.9122C26.1122 26.8179 26.1594 26.7213 26.2026 26.6234C26.2458 26.525 26.2845 26.4253 26.3192 26.3239C26.3539 26.2224 26.3846 26.1196 26.4109 26.0154L28.3154 18.4575C28.8001 16.735 27.3295 14.908 25.5501 14.956Z" fill="white"/>
  </g>
</svg>