<svg xmlns="http://www.w3.org/2000/svg" width="12" height="13" viewBox="0 0 12 13" fill="none">
  <path d="M10.6449 5.85344V2.3159C10.6449 2.00879 10.5203 1.71427 10.2985 1.49711C10.0766 1.27995 9.77581 1.15795 9.46212 1.15795H6.99014C6.74176 0.48634 6.09124 0 5.32244 0C4.55364 0 3.90312 0.48634 3.65474 1.15795H1.18276C0.532244 1.15795 0 1.67903 0 2.3159V10.4216C0 10.7287 0.124612 11.0232 0.346424 11.2404C0.568235 11.4575 0.869076 11.5795 1.18276 11.5795H4.79611C5.54125 12.2974 6.55843 12.7375 7.68797 12.7375C9.97662 12.7375 11.8276 10.9253 11.8276 8.68464C11.8276 7.57879 11.3782 6.58295 10.6449 5.85344ZM5.32244 1.15795C5.6477 1.15795 5.91382 1.41849 5.91382 1.73693C5.91382 2.05536 5.6477 2.3159 5.32244 2.3159C4.99718 2.3159 4.73106 2.05536 4.73106 1.73693C4.73106 1.41849 4.99718 1.15795 5.32244 1.15795ZM1.77415 3.47385H8.87074V4.63181H1.77415V3.47385ZM3.5956 9.26361H1.77415V8.10566H3.5956C3.56604 8.29672 3.54829 8.48778 3.54829 8.68464C3.54829 8.88149 3.56604 9.07255 3.5956 9.26361ZM1.77415 6.94771V5.78976H4.79611C4.43537 6.11977 4.16333 6.51348 3.95043 6.94771H1.77415ZM7.68797 11.5795C6.05576 11.5795 4.73106 10.2826 4.73106 8.68464C4.73106 7.08666 6.05576 5.78976 7.68797 5.78976C9.32019 5.78976 10.6449 7.08666 10.6449 8.68464C10.6449 10.2826 9.32019 11.5795 7.68797 11.5795ZM7.98366 8.82938L9.67502 9.80785L9.23148 10.5142L7.09659 9.26361V6.36873H7.98366V8.82938Z" fill="white"/>
</svg>