<svg xmlns="http://www.w3.org/2000/svg" width="19" height="17" viewBox="0 0 19 17" fill="none">
  <path d="M14.1722 16.8443C14.0262 16.8449 13.8822 16.8115 13.7522 16.7468L9.09621 14.3803L4.44021 16.7468C4.28902 16.824 4.11856 16.8585 3.9482 16.8463C3.77785 16.8341 3.61443 16.7757 3.47653 16.6779C3.33864 16.58 3.23178 16.4465 3.16813 16.2926C3.10447 16.1387 3.08657 15.9706 3.11644 15.8073L4.02939 10.8171L0.268067 7.27173C0.150715 7.15803 0.0674676 7.01546 0.0272581 6.85931C-0.0129513 6.70315 -0.00860473 6.53932 0.0398314 6.38538C0.0927454 6.22785 0.19008 6.08788 0.320789 5.98134C0.451499 5.87481 0.610349 5.80598 0.779314 5.78266L5.98308 5.04699L8.27456 0.5C8.34932 0.350144 8.46604 0.223762 8.61136 0.135332C8.75667 0.0469015 8.92471 -5.48444e-08 9.09621 -5.58983e-08C9.26771 -5.69522e-08 9.43575 0.0469014 9.58106 0.135332C9.72638 0.223762 9.8431 0.350144 9.91786 0.5L12.2367 5.03812L17.4405 5.7738C17.6095 5.79711 17.7683 5.86594 17.899 5.97248C18.0297 6.07902 18.1271 6.21899 18.18 6.37652C18.2284 6.53045 18.2328 6.69429 18.1926 6.85044C18.1523 7.0066 18.0691 7.14917 17.9517 7.26287L14.1904 10.8083L15.1034 15.7984C15.136 15.9646 15.1189 16.1364 15.0542 16.2934C14.9895 16.4505 14.8798 16.5863 14.7382 16.6848C14.5729 16.7973 14.3738 16.8534 14.1722 16.8443Z" fill="white"/>
</svg>