<svg xmlns="http://www.w3.org/2000/svg" width="12" height="13" viewBox="0 0 12 13" fill="none">
  <path d="M5.91462 7.10139L8.01454 2.2168H3.8147L5.91462 7.10139Z" fill="white"/>
  <mask id="mask0_320_93" style="mask-type:luminance" maskUnits="userSpaceOnUse" x="2" y="0" width="4" height="2">
    <path d="M2.84204 0H5.31782V1.63239H2.84204V0Z" fill="white"/>
  </mask>
  <g mask="url(#mask0_320_93)">
    <path d="M3.54821 1.5981L5.31341 0.00292969H2.86255L3.54821 1.5981Z" fill="white"/>
  </g>
  <mask id="mask1_320_93" style="mask-type:luminance" maskUnits="userSpaceOnUse" x="6" y="0" width="3" height="2">
    <path d="M6.49268 0H8.96845V1.63239H6.49268V0Z" fill="white"/>
  </mask>
  <g mask="url(#mask1_320_93)">
    <path d="M8.28075 1.5981L8.96673 0.00292969H6.51587L8.28075 1.5981Z" fill="white"/>
  </g>
  <path d="M4.06519 1.75362H7.76394L5.91464 0.0820312L4.06519 1.75362Z" fill="white"/>
  <path d="M10.5897 7.82227L6.00133 9.64604C5.97412 9.65679 5.94544 9.66241 5.91692 9.66241C5.8884 9.66241 5.85955 9.65695 5.8325 9.64604L1.23877 7.82178V12.4214C4.28137 13.1685 7.53575 13.1698 10.59 12.4214V7.82211L10.5897 7.82227Z" fill="white"/>
  <mask id="mask2_320_93" style="mask-type:luminance" maskUnits="userSpaceOnUse" x="0" y="5" width="12" height="5">
    <path d="M0 5.48584H11.8276V9.2121H0V5.48584Z" fill="white"/>
  </mask>
  <g mask="url(#mask2_320_93)">
    <path d="M1.09431 7.26603C1.09661 7.26702 1.09858 7.26768 1.10087 7.26851L5.91687 9.18109L11.8319 6.83068L8.46362 5.49023L6.07587 7.85024C6.07242 7.85371 6.06751 7.85487 6.0639 7.85818C6.04817 7.87174 6.03145 7.88299 6.01276 7.89176C6.00571 7.89523 5.99916 7.89887 5.99211 7.90152C5.96752 7.91028 5.94195 7.91624 5.91474 7.91624C5.88769 7.91624 5.86212 7.91028 5.83753 7.90152C5.83032 7.89887 5.8236 7.8949 5.81672 7.89176C5.79819 7.88266 5.78131 7.87158 5.76574 7.85818C5.76197 7.85487 5.75722 7.85371 5.75377 7.85024L3.36815 5.49255L-0.00195312 6.83035L1.09448 7.26586L1.09431 7.26603Z" fill="white"/>
  </g>
  <path d="M5.2355 6.6887L3.31293 2.2168H0.710938L5.2355 6.6887Z" fill="white"/>
  <path d="M0.733154 1.75378H3.11353L2.43017 0.164062L0.733154 1.75378Z" fill="white"/>
  <path d="M8.24807 5.05383L11.1184 2.2168H8.51623L6.59351 6.68887L8.24184 5.05962C8.24381 5.05764 8.24577 5.05565 8.24774 5.05383H8.24807Z" fill="white"/>
  <path d="M8.71582 1.75378H11.0962L9.39918 0.164062L8.71582 1.75378Z" fill="white"/>
</svg>